<?xml version="1.0" standalone="no"?>
<!DOCTYPE svg PUBLIC "-//W3C//DTD SVG 20010904//EN"
 "http://www.w3.org/TR/2001/REC-SVG-20010904/DTD/svg10.dtd">
<svg xmlns="http://www.w3.org/2000/svg" version="1.0" width="128.000000pt" height="128.000000pt" viewBox="0 0 128.000000 128.000000" preserveAspectRatio="xMidYMid meet">

<g transform="translate(0.000000,128.000000) scale(0.100000,-0.100000)" fill="#000000" stroke="none">
<path d="M185 1015 c-24 -23 -25 -29 -25 -160 l0 -135 60 0 60 0 0 68 c0 40 5 73 12 80 17 17 279 17 296 0 7 -7 12 -40 12 -80 l0 -68 40 0 40 0 0 68 c0 40 5 73 12 80 17 17 279 17 296 0 7 -7 12 -40 12 -80 l0 -68 60 0 60 0 0 135 c0 131 -1 137 -25 160 l-24 25 -431 0 -431 0 -24 -25z" fill="#526684"/>
<path d="M125 655 c-23 -22 -25 -32 -25 -120 l0 -95 540 0 540 0 0 95 c0 88 -2 98 -25 120 l-24 25 -491 0 -491 0 -24 -25z" fill="#fd850b"/>
<path d="M80 360 c0 -33 3 -40 20 -40 17 0 20 -7 20 -40 l0 -40 40 0 40 0 0 40 0 40 440 0 440 0 0 -40 0 -40 40 0 40 0 0 40 c0 33 3 40 20 40 17 0 20 7 20 40 l0 40 -560 0 -560 0 0 -40z" fill="#526684"/>
</g>
</svg>
